<svg width="21" height="21" viewBox="0 0 21 21" fill="none" xmlns="http://www.w3.org/2000/svg">
<path d="M10.7053 13.4358H11.2465C11.7877 13.4358 12.2373 12.9528 12.2373 12.37C12.2373 11.6456 11.9792 11.504 11.5546 11.3542L10.7136 11.0627V13.4358H10.7053Z" fill="#1FCB4F"/>
<path d="M10.0559 1.76222C5.45969 1.77887 1.7378 5.51742 1.75445 10.1136C1.7711 14.7098 5.50965 18.4317 10.1058 18.415C14.702 18.3983 18.4239 14.6598 18.4072 10.0636C18.3906 5.46746 14.652 1.75389 10.0559 1.76222ZM11.9626 10.1719C12.6121 10.3967 13.4863 10.8796 13.4863 12.37C13.4863 13.6523 12.4788 14.6848 11.2465 14.6848H10.7053V15.1677C10.7053 15.5091 10.4222 15.7922 10.0808 15.7922C9.73946 15.7922 9.45636 15.5091 9.45636 15.1677V14.6848H9.15661C7.79108 14.6848 6.68367 13.5357 6.68367 12.1202C6.68367 11.7789 6.96677 11.4958 7.30815 11.4958C7.64953 11.4958 7.93263 11.7789 7.93263 12.1202C7.93263 12.8446 8.48217 13.4358 9.15661 13.4358H9.45636V10.6215L8.19908 10.1719C7.54962 9.94706 6.67535 9.46413 6.67535 7.97371C6.67535 6.69144 7.68284 5.65897 8.91514 5.65897H9.45636V5.17604C9.45636 4.83466 9.73946 4.55156 10.0808 4.55156C10.4222 4.55156 10.7053 4.83466 10.7053 5.17604V5.65897H11.0051C12.3706 5.65897 13.478 6.80801 13.478 8.2235C13.478 8.56488 13.1949 8.84798 12.8535 8.84798C12.5121 8.84798 12.229 8.56488 12.229 8.2235C12.229 7.4991 11.6795 6.90793 11.0051 6.90793H10.7053V9.72225L11.9626 10.1719Z" fill="#1FCB4F"/>
<path d="M7.9325 7.98197C7.9325 8.70637 8.19061 8.84792 8.61526 8.99779L9.45622 9.28921V6.90787H8.91501C8.37379 6.90787 7.9325 7.3908 7.9325 7.98197Z" fill="#1FCB4F"/>
</svg>
