<svg width="18" height="16" viewBox="0 0 18 16" fill="none" xmlns="http://www.w3.org/2000/svg">
<path d="M12.5375 15.8571H5.04372C2.17944 15.8571 0.256042 13.9337 0.256042 11.0695L0.256042 5.24098C0.256042 2.67645 1.83804 0.819675 4.29432 0.511599C4.51913 0.478293 4.77727 0.453308 5.04372 0.453308L12.5375 0.453308C12.7373 0.453308 12.9954 0.461632 13.2619 0.503264C15.7181 0.786362 17.3251 2.65147 17.3251 5.24098V6.44832C17.3251 6.7897 17.042 7.0728 16.7007 7.0728L14.9688 7.0728C14.6773 7.0728 14.4109 7.18104 14.2194 7.38087L14.2111 7.3892C13.9779 7.61402 13.8697 7.92206 13.8947 8.23846C13.9363 8.788 14.4692 9.2293 15.0687 9.2293H16.7007C17.042 9.2293 17.3251 9.5124 17.3251 9.85378V11.0611C17.3251 13.9337 15.4017 15.8571 12.5375 15.8571ZM5.04372 1.70227C4.84388 1.70227 4.65237 1.71891 4.46086 1.74389C2.62905 1.97703 1.505 3.30926 1.505 5.24098V11.0695C1.505 13.2177 2.89551 14.6082 5.04372 14.6082H12.5375C14.6857 14.6082 16.0762 13.2177 16.0762 11.0695V10.4866H15.0687C13.8114 10.4866 12.7456 9.55404 12.6457 8.35504C12.5791 7.67228 12.8289 6.98954 13.3285 6.50661C13.7615 6.06531 14.3443 5.82384 14.9688 5.82384H16.0762V5.24098C16.0762 3.29261 14.9354 1.95204 13.087 1.73555C12.8872 1.70225 12.7123 1.70227 12.5375 1.70227L5.04372 1.70227Z" fill="#A9A9A9"/>
</svg>
