<svg width="21" height="21" viewBox="0 0 21 21" fill="none" xmlns="http://www.w3.org/2000/svg">
<path d="M19.007 10.6881V12.4033C19.007 12.8696 18.624 13.2526 18.1494 13.2526H16.5424C15.6432 13.2526 14.8189 12.5948 14.7439 11.6956C14.694 11.171 14.8938 10.6797 15.2435 10.3384C15.5516 10.022 15.9762 9.83878 16.4425 9.83878H18.1494C18.624 9.83878 19.007 10.2218 19.007 10.6881Z" fill="#1FCB4F"/>
<path d="M13.4948 11.8038C13.4199 10.9296 13.7363 10.072 14.3691 9.44748C14.902 8.90626 15.643 8.58986 16.4423 8.58986H16.9169C17.1501 8.58986 17.3416 8.39835 17.3083 8.16521C17.0835 6.54989 15.6846 5.30093 14.011 5.30093H5.68465C3.84452 5.30093 2.3541 6.79136 2.3541 8.63149L2.3541 14.46C2.3541 16.3001 3.84452 17.7905 5.68465 17.7905H14.011C15.693 17.7905 17.0835 16.5416 17.3083 14.9262C17.3416 14.6931 17.1501 14.5016 16.9169 14.5016H16.5423C14.9602 14.5016 13.628 13.3192 13.4948 11.8038ZM11.5131 10.0886H6.51729C6.17591 10.0886 5.89281 9.81384 5.89281 9.46413C5.89281 9.11442 6.17591 8.83965 6.51729 8.83965H11.5131C11.8545 8.83965 12.1376 9.12275 12.1376 9.46413C12.1376 9.80551 11.8545 10.0886 11.5131 10.0886Z" fill="#1FCB4F"/>
<path d="M12.5207 3.49407C12.7372 3.71889 12.5457 4.05194 12.2293 4.05194H5.70975C4.80218 4.05194 3.95288 4.31839 3.24514 4.77634C2.92041 4.9845 2.47911 4.75969 2.63731 4.40165C3.10359 3.31089 4.19435 2.55319 5.45163 2.55319H10.1311C11.0969 2.55319 11.9545 2.89457 12.5207 3.49407Z" fill="#1FCB4F"/>
</svg>
