<svg width="21" height="21" viewBox="0 0 21 21" fill="none" xmlns="http://www.w3.org/2000/svg">
<path d="M18.6066 6.46662C18.6066 7.01616 18.157 7.46579 17.6074 7.46579H2.95298C2.40344 7.46579 1.95381 7.01616 1.95381 6.46662V6.45829C1.95381 4.55155 3.49419 3.01117 5.40094 3.01117L15.1511 3.01117C17.0579 3.01117 18.6066 4.55988 18.6066 6.46662Z" fill="#1FCB4F"/>
<path d="M1.95381 9.71389L1.95381 13.8854C1.95381 15.7922 3.49419 17.3325 5.40094 17.3325H15.1511C17.0579 17.3325 18.6066 15.7838 18.6066 13.8771V9.71389C18.6066 9.16435 18.157 8.71472 17.6074 8.71472H2.95298C2.40344 8.71472 1.95381 9.16435 1.95381 9.71389ZM6.94965 14.5432H5.28437C4.94299 14.5432 4.65989 14.2601 4.65989 13.9187C4.65989 13.5773 4.94299 13.2942 5.28437 13.2942H6.94965C7.29103 13.2942 7.57412 13.5773 7.57412 13.9187C7.57412 14.2601 7.29103 14.5432 6.94965 14.5432ZM12.3618 14.5432H9.03124C8.68986 14.5432 8.40676 14.2601 8.40676 13.9187C8.40676 13.5773 8.68986 13.2942 9.03124 13.2942H12.3618C12.7032 13.2942 12.9863 13.5773 12.9863 13.9187C12.9863 14.2601 12.7032 14.5432 12.3618 14.5432Z" fill="#1FCB4F"/>
</svg>
