<svg width="21" height="21" viewBox="0 0 21 21" fill="none" xmlns="http://www.w3.org/2000/svg">
<path d="M10.4313 2.02027L8.42461 6.69137H6.41795C6.0849 6.69137 5.76017 6.71635 5.44376 6.78296L6.2764 4.78463L6.30971 4.70969L6.35967 4.57647C6.38465 4.51818 6.4013 4.46823 6.42628 4.42659C7.39214 2.1868 8.47457 1.48738 10.4313 2.02027Z" fill="#1FCB4F"/>
<path d="M16.0848 6.91624L16.0682 6.90791C15.5686 6.76637 15.0607 6.69143 14.5444 6.69143H9.33212L11.2056 2.33673L11.2305 2.27844C11.3471 2.32007 11.472 2.37836 11.5969 2.41999L13.437 3.19435C14.4612 3.61899 15.1772 4.06029 15.6185 4.59318C15.6935 4.6931 15.7601 4.78469 15.8267 4.89293C15.9016 5.0095 15.9599 5.12607 15.9932 5.25096C16.0265 5.3259 16.0515 5.39251 16.0682 5.46745C16.1931 5.8921 16.2014 6.37503 16.0848 6.91624Z" fill="#1FCB4F"/>
<path d="M10.9141 14.8845H11.1222C11.372 14.8845 11.5802 14.6597 11.5802 14.385C11.5802 14.0352 11.4802 13.9853 11.2638 13.902L10.9141 13.7771V14.8845Z" fill="#1FCB4F"/>
<path d="M15.7186 8.10687C15.3439 7.99862 14.9525 7.94034 14.5445 7.94034H6.41798C5.85179 7.94034 5.3189 8.04858 4.81932 8.26507C3.37053 8.88955 2.35471 10.33 2.35471 12.0036V13.6273C2.35471 13.8271 2.37136 14.0186 2.39634 14.2184C2.57952 16.8662 3.995 18.2817 6.6428 18.4566C6.8343 18.4815 7.02581 18.4982 7.23397 18.4982H13.7286C16.8093 18.4982 18.433 17.0328 18.5912 14.1185C18.5995 13.9603 18.6078 13.7938 18.6078 13.6273V12.0036C18.6078 10.1635 17.3838 8.61478 15.7186 8.10687ZM11.547 13.086C11.9301 13.2193 12.4463 13.5024 12.4463 14.385C12.4463 15.1427 11.8551 15.7505 11.1224 15.7505H10.9142V15.9337C10.9142 16.1751 10.7227 16.3666 10.4813 16.3666C10.2398 16.3666 10.0483 16.1751 10.0483 15.9337V15.7505H9.97335C9.17402 15.7505 8.51623 15.0761 8.51623 14.2434C8.51623 14.0019 8.70774 13.8104 8.94921 13.8104C9.19067 13.8104 9.38218 14.0019 9.38218 14.2434C9.38218 14.5931 9.64862 14.8845 9.97335 14.8845H10.0483V13.4774L9.41548 13.2526C9.03247 13.1194 8.51623 12.8363 8.51623 11.9537C8.51623 11.196 9.10741 10.5881 9.84013 10.5881H10.0483V10.4049C10.0483 10.1635 10.2398 9.97198 10.4813 9.97198C10.7227 9.97198 10.9142 10.1635 10.9142 10.4049V10.5881H10.9892C11.7885 10.5881 12.4463 11.2626 12.4463 12.0952C12.4463 12.3367 12.2548 12.5282 12.0133 12.5282C11.7719 12.5282 11.5803 12.3367 11.5803 12.0952C11.5803 11.7455 11.3139 11.4541 10.9892 11.4541H10.9142V12.8612L11.547 13.086Z" fill="#1FCB4F"/>
<path d="M9.38213 11.9537C9.38213 12.3035 9.48204 12.3534 9.69853 12.4367L10.0482 12.5616V11.4542H9.84008C9.58196 11.4542 9.38213 11.679 9.38213 11.9537Z" fill="#1FCB4F"/>
</svg>
