<svg width="15" height="15" viewBox="0 0 15 15" fill="none" xmlns="http://www.w3.org/2000/svg">
<path d="M7.18128 13.5824C3.65297 13.5824 0.780365 10.7098 0.780365 7.18151C0.780365 3.6532 3.65297 0.780594 7.18128 0.780594C10.7096 0.780594 13.5822 3.6532 13.5822 7.18151C13.5822 10.7098 10.7096 13.5824 7.18128 13.5824ZM7.18128 1.71731C4.16504 1.71731 1.71708 4.17152 1.71708 7.18151C1.71708 10.1915 4.16504 12.6457 7.18128 12.6457C10.1975 12.6457 12.6455 10.1915 12.6455 7.18151C12.6455 4.17152 10.1975 1.71731 7.18128 1.71731Z" fill="#9E9E9E"/>
<path d="M13.7384 14.2069C13.6197 14.2069 13.5011 14.1632 13.4074 14.0695L12.1584 12.8206C11.9773 12.6395 11.9773 12.3397 12.1584 12.1586C12.3395 11.9775 12.6393 11.9775 12.8204 12.1586L14.0693 13.4076C14.2504 13.5887 14.2504 13.8884 14.0693 14.0695C13.9757 14.1632 13.857 14.2069 13.7384 14.2069Z" fill="#9E9E9E"/>
</svg>
