<svg width="21" height="21" viewBox="0 0 21 21" fill="none" xmlns="http://www.w3.org/2000/svg">
<path d="M12.2885 14.3991H8.12527C7.78389 14.3991 7.50079 14.116 7.50079 13.7746C7.50079 13.4332 7.78389 13.1501 8.12527 13.1501H12.2885C12.6298 13.1501 12.9129 13.4332 12.9129 13.7746C12.9129 14.116 12.6298 14.3991 12.2885 14.3991Z" fill="#A9A9A9"/>
<path d="M4.54512 9.1618C4.38692 9.1618 4.22872 9.09519 4.10383 8.97862C3.92897 8.80377 3.87069 8.529 3.9706 8.29586L5.51931 4.59894C5.55262 4.524 5.56927 4.47405 5.59425 4.43241C6.82656 1.59312 8.40024 0.902025 11.1813 1.9678C11.3395 2.02609 11.4644 2.15098 11.531 2.30919C11.5976 2.46739 11.5976 2.64224 11.531 2.80044L9.09133 8.46239C8.99142 8.6872 8.7666 8.83707 8.51681 8.83707H6.14379C5.66919 8.83707 5.21956 8.92866 4.78659 9.11184C4.71165 9.14515 4.62839 9.1618 4.54512 9.1618ZM9.0497 2.74216C8.01723 2.74216 7.38442 3.41659 6.72664 4.94865C6.71831 4.97363 6.70166 4.99861 6.69333 5.02359L5.60258 7.6131C5.78576 7.59644 5.96061 7.58812 6.14379 7.58812H8.10049L10.1072 2.92534C9.71581 2.80044 9.3661 2.74216 9.0497 2.74216Z" fill="#A9A9A9"/>
<path d="M15.4444 9.00362C15.3861 9.00362 15.3195 8.99529 15.2612 8.97864C14.9531 8.88705 14.6118 8.83709 14.2621 8.83709H8.51684C8.30868 8.83709 8.10885 8.72885 7.99228 8.55399C7.88404 8.37914 7.85906 8.15433 7.94232 7.96282L10.357 2.35916C10.4819 2.05941 10.8399 1.85958 11.1563 1.95949C11.2562 1.9928 11.3478 2.03443 11.4477 2.07606L13.4128 2.90038C14.5618 3.37498 15.3278 3.87456 15.8274 4.47406C15.9273 4.59063 16.0106 4.71553 16.0855 4.84042C16.1771 4.98197 16.2604 5.15683 16.3187 5.33168C16.3436 5.38997 16.3853 5.49821 16.4103 5.61478C16.6434 6.39746 16.5268 7.37165 16.0272 8.6206C15.9273 8.85374 15.6942 9.00362 15.4444 9.00362ZM9.46605 7.58813H14.2704C14.5368 7.58813 14.7949 7.61311 15.0531 7.65474C15.2862 6.93035 15.3362 6.37248 15.2029 5.92286C15.1863 5.84792 15.1696 5.81461 15.1613 5.78131C15.1113 5.64808 15.078 5.57315 15.0364 5.50654C14.9781 5.41495 14.9365 5.34001 14.8699 5.26507C14.5118 4.8321 13.879 4.43243 12.9382 4.04942L11.2895 3.35833L9.46605 7.58813Z" fill="#A9A9A9"/>
<path d="M13.4542 19.3949H6.95959C6.72645 19.3949 6.50996 19.3782 6.29348 19.3532C3.37092 19.1534 1.70564 17.4881 1.5058 14.5323C1.48083 14.3491 1.46417 14.1243 1.46417 13.8995V12.2758C1.46417 10.4024 2.57991 8.71212 4.30347 7.96275C4.88632 7.71295 5.5108 7.58806 6.15193 7.58806H14.2785C14.7531 7.58806 15.211 7.65467 15.6357 7.78789C17.5924 8.37907 18.9662 10.2275 18.9662 12.2758V13.8995C18.9662 14.0826 18.9579 14.2575 18.9496 14.424C18.7664 17.6796 16.868 19.3949 13.4542 19.3949ZM6.1436 8.83702C5.669 8.83702 5.21937 8.92861 4.7864 9.11179C3.52079 9.66133 2.7048 10.902 2.7048 12.2758V13.8995C2.7048 14.0743 2.72146 14.2492 2.73811 14.4157C2.89631 16.7887 4.06201 17.9544 6.40172 18.1126C6.60988 18.1376 6.77641 18.1542 6.95126 18.1542H13.4458C16.1936 18.1542 17.5424 16.9469 17.6756 14.3657C17.684 14.2159 17.6923 14.066 17.6923 13.8995V12.2758C17.6923 10.7687 16.6848 9.41986 15.2527 8.97857C14.9446 8.88698 14.6032 8.83702 14.2535 8.83702H6.1436Z" fill="#A9A9A9"/>
<path d="M2.08053 12.9004C1.73915 12.9004 1.45605 12.6173 1.45605 12.2759V9.83628C1.45605 7.21347 3.31284 4.94869 5.87737 4.44911C6.10218 4.40747 6.33532 4.49074 6.48519 4.66559C6.62674 4.84045 6.66837 5.09024 6.57678 5.2984L5.11967 8.77883C5.05305 8.9287 4.93649 9.04527 4.79494 9.11188C3.52933 9.66142 2.71334 10.9021 2.71334 12.2759C2.70501 12.6173 2.43024 12.9004 2.08053 12.9004ZM4.8782 6.13104C3.81242 6.73054 3.03807 7.77966 2.7966 9.00364C3.16296 8.62895 3.58761 8.31255 4.07054 8.07941L4.8782 6.13104Z" fill="#A9A9A9"/>
<path d="M18.3336 12.9004C17.9922 12.9004 17.7091 12.6173 17.7091 12.2759C17.7091 10.7688 16.7016 9.41993 15.2695 8.97863C15.103 8.92867 14.9614 8.8121 14.8865 8.6539C14.8115 8.4957 14.8032 8.31252 14.8698 8.15432C15.2612 7.18013 15.3611 6.47239 15.2029 5.92285C15.1862 5.84791 15.1696 5.8146 15.1612 5.7813C15.053 5.53983 15.1113 5.25674 15.3028 5.07356C15.4943 4.89037 15.7857 4.84874 16.0189 4.97364C17.834 5.92285 18.9581 7.78796 18.9581 9.83625V12.2759C18.9581 12.6173 18.675 12.9004 18.3336 12.9004ZM16.2437 8.0211C16.7682 8.26256 17.2345 8.60394 17.6258 9.01194C17.4676 8.19595 17.0763 7.4549 16.5018 6.87205C16.4602 7.22176 16.3769 7.60478 16.2437 8.0211Z" fill="#A9A9A9"/>
</svg>
